# Blender 3.4.1
# www.blender.org
mtllib bakedAfghanCookies.mtl
o Cylinder
v 0.000481 0.007133 -0.009574
v 0.001191 0.005990 0.009571
v 0.006151 0.003288 -0.009571
v 0.006472 -0.002681 -0.009572
v 0.005693 0.002358 0.009573
v 0.003460 -0.005556 0.009591
v 0.000229 -0.007266 -0.009577
v -0.006034 -0.003447 -0.009571
v -0.006398 0.003170 -0.009576
v -0.005375 -0.003352 0.009576
v -0.004690 0.004098 0.009574
v 0.002138 0.024264 0.000030
v 0.011345 0.021602 -0.000030
v 0.018850 0.015469 0.000000
v 0.023335 0.007079 0.000000
v 0.024264 -0.002138 0.000030
v 0.021602 -0.011345 -0.000030
v 0.015469 -0.018850 0.000000
v 0.007079 -0.023335 0.000000
v -0.002138 -0.024264 0.000030
v -0.011345 -0.021602 -0.000030
v -0.018850 -0.015469 0.000000
v -0.023335 -0.007079 0.000000
v -0.024264 0.002138 0.000030
v -0.021602 0.011345 -0.000030
v -0.015469 0.018850 0.000000
v -0.007079 0.023335 0.000000
v 0.007589 0.019014 -0.006095
v 0.018033 0.010169 -0.006074
v 0.020271 -0.001930 -0.006076
v 0.015900 -0.013050 -0.006148
v 0.006179 -0.019366 -0.006077
v -0.001930 -0.020271 -0.006076
v -0.009557 -0.017881 -0.006107
v -0.016800 -0.011721 -0.006073
v -0.020547 -0.000099 -0.006073
v -0.016956 0.011330 -0.006126
v -0.009839 0.017788 -0.006077
v -0.002236 0.020191 -0.006097
v 0.008304 0.018714 0.006089
v 0.018477 0.009337 0.006074
v 0.019696 -0.006314 0.006102
v 0.011139 -0.017178 0.006095
v 0.001740 -0.020240 0.006096
v -0.010176 -0.018028 0.006074
v -0.019020 -0.007574 0.006095
v -0.019994 0.004353 0.006108
v -0.014186 0.014779 0.006074
v -0.003629 0.020138 0.006108
vn 0.0311 0.2476 0.9684
vn 0.2530 0.0215 0.9672
vn 0.1613 0.1809 0.9702
vn 0.2003 -0.1585 0.9668
vn 0.0782 -0.2394 0.9678
vn -0.0439 -0.2264 0.9730
vn -0.1950 -0.1668 0.9665
vn -0.2411 -0.0208 0.9703
vn -0.2172 0.1241 0.9682
vn -0.1133 0.2170 0.9696
vn -0.7813 0.2336 -0.5788
vn -0.2447 0.7689 -0.5907
vn -0.5353 0.5945 -0.6000
vn -0.7470 -0.2408 -0.6197
vn 0.0955 0.7962 -0.5975
vn 0.1417 -0.1919 -0.9711
vn -0.2373 -0.0138 -0.9713
vn -0.1177 0.2049 -0.9717
vn -0.0885 0.8611 0.5007
vn -0.6688 0.5445 0.5062
vn -0.8331 0.2441 0.4964
vn -0.7609 -0.4067 0.5057
vn -0.5474 -0.6723 0.4984
vn -0.2397 -0.8171 0.5243
vn 0.0879 -0.8551 0.5110
vn 0.4083 -0.7639 0.4997
vn 0.8484 -0.2484 0.4675
vn 0.7792 0.4165 0.4684
vn 0.2420 0.8255 0.5099
vn 0.2072 -0.0563 0.9767
vn -0.0552 -0.2146 0.9751
vn -0.2205 0.0206 0.9752
vn -0.0003 0.0013 1.0000
vn -0.0688 0.2150 0.9742
vn 0.0001 0.0001 -1.0000
vn -0.0848 0.8566 -0.5090
vn -0.4058 0.7593 -0.5087
vn -0.6657 0.5460 -0.5087
vn -0.5323 -0.6358 -0.5590
vn -0.8645 -0.0856 -0.4953
vn -0.7600 -0.4062 -0.5073
vn -0.2380 -0.8025 -0.5471
vn 0.0871 -0.8316 -0.5484
vn 0.4166 -0.7023 -0.5772
vn 0.7713 -0.2632 -0.5795
vn 0.6793 -0.5570 -0.4778
vn 0.8046 0.1188 -0.5818
vn 0.5160 0.6163 -0.5949
vn 0.7792 0.4165 -0.4683
vn 0.1584 0.1993 -0.9671
vn 0.2373 0.8318 -0.5019
vn 0.0318 0.2633 -0.9642
vn 0.2526 0.0360 -0.9669
vn -0.1480 -0.1965 -0.9693
vn 0.2492 -0.0918 -0.9641
vn 0.1325 -0.2148 -0.9676
vn 0.0295 -0.2644 -0.9640
vn -0.0738 -0.2478 -0.9660
vn -0.3770 0.7236 0.5782
vn -0.2512 -0.0809 -0.9646
vn -0.2562 0.0760 -0.9636
vn -0.1674 0.1920 -0.9670
vn -0.0788 0.2411 -0.9673
vn -0.8100 -0.0741 0.5818
vn -0.6863 0.3843 0.6176
vn 0.6279 -0.5014 0.5952
vn -0.5907 -0.5010 0.6325
vn -0.1457 -0.7790 0.6099
vn 0.2474 -0.7591 0.6021
vn 0.7828 0.0691 0.6184
vn 0.5296 0.6042 0.5953
vn 0.0940 0.7799 0.6188
vt 0.765165 0.476106
vt 0.971330 0.500000
vt 0.035156 0.500000
vt 0.963282 1.000000
vt 0.294704 0.477237
vt 0.015625 1.000000
vt 0.956278 0.360182
vt 0.828093 0.500000
vt 0.963638 0.161291
vt 0.687335 0.500000
vt 0.812928 1.000000
vt 0.462454 0.338685
vt 0.587261 1.000000
vt 0.359423 0.070296
vt 0.756950 0.028281
vt 0.504874 0.500000
vt 0.546633 0.133535
vt 0.332717 0.500000
vt 0.547213 0.351216
vt 0.176247 0.500000
vt 0.339129 1.000000
vt 0.061904 0.132110
vt 0.078464 0.398857
vt 0.136307 1.000000
vt 0.000000 0.750000
vt 0.986019 0.750000
vt 0.923042 0.750000
vt 0.859375 0.750000
vt 0.796875 0.750000
vt 0.736019 0.750000
vt 0.673042 0.750000
vt 0.609375 0.750000
vt 0.546875 0.750000
vt 0.486019 0.750000
vt 0.423042 0.750000
vt 0.359375 0.750000
vt 0.296875 0.750000
vt 0.236019 0.750000
vt 0.173042 0.750000
vt 0.109375 0.750000
vt 0.046875 0.750000
vt 0.939486 0.625000
vt 0.831774 0.625000
vt 0.734892 0.625000
vt 0.640626 0.625000
vt 0.549171 0.625000
vt 0.484892 0.625000
vt 0.421875 0.625000
vt 0.347086 0.625000
vt 0.250901 0.625000
vt 0.156327 0.625000
vt 0.080421 0.625000
vt 1.000000 0.625000
vt 0.017562 0.625000
vt 0.933591 0.875000
vt 0.824425 0.875000
vt 0.700595 0.875000
vt 0.591448 0.875000
vt 0.513636 0.875000
vt 0.418164 0.875000
vt 0.310194 0.875000
vt 0.215937 0.875000
vt 0.121807 0.875000
vt 0.028437 0.875000
vt 1.000000 0.875000
s 0
usemtl Material.007
f 49/65/1 2/4/1 40/55/1
f 5/11/2 42/57/2 41/56/2
f 5/11/3 41/56/3 40/55/3 2/4/3
f 6/13/4 43/58/4 42/57/4
f 6/13/5 44/59/5 43/58/5
f 44/59/6 6/13/6 45/60/6
f 10/21/7 46/61/7 45/60/7
f 10/21/8 47/62/8 46/61/8
f 47/62/9 11/24/9 48/63/9
f 11/24/10 49/64/10 48/63/10
f 25/39/11 37/51/11 36/50/11 24/38/11
f 27/41/12 39/54/12 38/52/12
f 26/40/13 38/52/13 37/51/13
f 23/37/14 36/50/14 35/49/14
f 12/26/15 28/42/15 39/53/15
f 31/45/16 7/16/16 4/10/16
f 36/50/17 9/20/17 8/18/17
f 38/52/18 1/3/18 9/20/18
f 49/64/19 12/25/19 27/41/19
f 48/63/20 26/40/20 25/39/20
f 47/62/21 25/39/21 24/38/21
f 46/61/22 23/37/22 22/36/22
f 45/60/23 22/36/23 21/35/23
f 45/60/24 21/35/24 20/34/24
f 44/59/25 20/34/25 19/33/25
f 43/58/26 19/33/26 18/32/26
f 42/57/27 17/31/27 16/30/27
f 41/56/28 15/29/28 14/28/28
f 40/55/29 13/27/29 12/26/29
f 5/11/30 6/13/30 42/57/30
f 6/13/31 10/21/31 45/60/31
f 10/21/32 11/24/32 47/62/32
f 2/5/33 11/23/33 10/22/33 6/14/33 5/12/33
f 11/24/34 2/6/34 49/64/34
f 7/15/35 8/17/35 9/19/35 1/1/35 3/7/35 4/9/35
f 27/41/36 12/25/36 39/54/36
f 26/40/37 27/41/37 38/52/37
f 25/39/38 26/40/38 37/51/38
f 35/49/39 34/48/39 21/35/39 22/36/39
f 23/37/40 24/38/40 36/50/40
f 22/36/41 23/37/41 35/49/41
f 21/35/42 34/48/42 33/47/42 20/34/42
f 33/47/43 32/46/43 19/33/43 20/34/43
f 32/46/44 31/45/44 18/32/44 19/33/44
f 17/31/45 31/45/45 30/44/45 16/30/45
f 17/31/46 18/32/46 31/45/46
f 30/44/47 29/43/47 15/29/47 16/30/47
f 29/43/48 28/42/48 13/27/48 14/28/48
f 14/28/49 15/29/49 29/43/49
f 3/8/50 1/2/50 28/42/50 29/43/50
f 28/42/51 12/26/51 13/27/51
f 39/53/52 28/42/52 1/2/52
f 30/44/53 4/10/53 3/8/53 29/43/53
f 8/18/54 7/16/54 34/48/54 35/49/54
f 4/10/55 30/44/55 31/45/55
f 31/45/56 32/46/56 7/16/56
f 7/16/57 32/46/57 33/47/57
f 7/16/58 33/47/58 34/48/58
f 27/41/59 26/40/59 48/63/59 49/64/59
f 8/18/60 35/49/60 36/50/60
f 9/20/61 36/50/61 37/51/61
f 37/51/62 38/52/62 9/20/62
f 1/3/63 38/52/63 39/54/63
f 24/38/64 23/37/64 46/61/64 47/62/64
f 47/62/65 48/63/65 25/39/65
f 18/32/66 17/31/66 42/57/66 43/58/66
f 45/60/67 46/61/67 22/36/67
f 44/59/68 45/60/68 20/34/68
f 43/58/69 44/59/69 19/33/69
f 16/30/70 15/29/70 41/56/70 42/57/70
f 14/28/71 13/27/71 40/55/71 41/56/71
f 49/65/72 40/55/72 12/26/72
