# Blender 3.4.1
# www.blender.org
mtllib icing.mtl
o carrotBody
v 0.000000 -0.019961 0.002196
v -0.017287 -0.009981 0.002196
v 0.000000 0.019961 0.002196
v 0.017287 0.009981 0.002196
v 0.017287 -0.009981 0.002196
v -0.017287 0.009981 0.002196
v 0.000000 -0.019344 -0.002196
v -0.016753 -0.009672 -0.002196
v 0.000000 0.019344 -0.002196
v 0.016753 0.009672 -0.002196
v 0.016753 -0.009672 -0.002196
v -0.016753 0.009672 -0.002196
vn -0.0000 -0.0000 -1.0000
vn -0.0000 -0.0000 1.0000
vn 0.9927 -0.0000 -0.1208
vn -0.4964 0.8597 -0.1208
vn -0.4963 0.8597 -0.1207
vn 0.4964 0.8597 -0.1207
vn 0.4963 0.8597 -0.1208
vn -0.4964 -0.8597 -0.1207
vn -0.4963 -0.8597 -0.1208
vn -0.9927 -0.0000 -0.1208
vn 0.4964 -0.8597 -0.1208
vn 0.4963 -0.8597 -0.1207
vt 1.181102 14.287900
vt -1.181102 14.287900
vt -1.181102 14.287900
vt 1.181102 14.287900
vt -1.181102 14.287900
vt 1.181102 14.287900
vt 1.181102 14.287900
vt -1.181102 14.287900
vt -1.181102 14.287900
vt 1.181102 14.287900
vt 1.181102 14.287900
vt -1.181102 14.287900
vt 0.590551 0.863047
vt -0.590551 0.863047
vt -0.590551 0.863047
vt 0.590551 0.863047
vt -0.590551 0.863047
vt 0.590551 0.863047
vt 0.590551 0.863047
vt -0.590551 0.863047
vt -0.590551 0.863047
vt 0.590551 0.863047
vt 0.590551 0.863047
vt -0.590551 0.863047
s 0
usemtl orange.003
f 7/14/1 8/16/1 12/23/1 9/18/1 10/19/1 11/22/1
f 1/2/2 5/10/2 4/7/2 3/6/2 6/11/2 2/4/2
f 11/21/3 4/7/3 5/9/3
f 4/7/3 11/21/3 10/19/3
f 6/11/4 9/17/4 12/23/4
f 9/17/5 6/11/5 3/5/5
f 3/6/6 10/20/6 9/18/6
f 10/20/7 3/6/7 4/8/7
f 1/1/8 8/15/8 7/13/8
f 8/15/9 1/1/9 2/3/9
f 6/12/10 8/16/10 2/4/10
f 8/16/10 6/12/10 12/24/10
f 5/10/11 7/14/11 11/22/11
f 7/14/12 5/10/12 1/2/12
